<svg version="1.1" id="Layer_1" xmlns="http://www.w3.org/2000/svg" xmlns:xlink="http://www.w3.org/1999/xlink" x="0px" y="0px"
	 width="100%" viewBox="0 0 1024 320" enable-background="new 0 0 1024 320" xml:space="preserve">
<path fill="#000000" opacity="1.000000" stroke="none" 
	d="
M697.936951,198.379639 
	C696.063232,197.335251 694.544861,196.385757 692.311218,194.989029 
	C691.260498,205.194138 690.218811,215.033859 689.246399,224.880417 
	C688.804749,229.351868 688.515747,233.838211 688.129883,238.315399 
	C687.544250,245.111038 680.595276,249.774582 674.035278,247.768219 
	C669.861511,246.491684 669.656860,243.338562 670.204163,239.740021 
	C672.532471,224.430771 674.672607,209.096115 676.139587,193.675430 
	C676.216370,192.868134 676.262512,192.057938 676.443909,189.630203 
	C670.703613,195.218262 665.396790,199.480698 658.212646,199.479874 
	C650.172852,199.478943 646.473145,194.232147 644.297729,187.132385 
	C642.175232,187.800415 641.351135,189.519211 640.270630,190.862106 
	C630.931641,202.469147 618.533264,202.542252 609.176270,191.014343 
	C608.867371,190.633698 608.458984,190.333725 608.083618,189.983749 
	C606.080017,189.777924 605.187073,191.445190 603.965759,192.452591 
	C600.592407,195.235046 597.010132,197.495041 592.725525,198.733475 
	C581.342407,202.023682 571.913879,195.331192 571.952576,183.528870 
	C571.982483,174.402786 574.908203,165.883133 578.806091,157.235931 
	C574.882996,155.875839 571.128906,154.824966 569.320374,159.346252 
	C563.613647,173.612991 552.453186,183.080307 540.977478,192.278778 
	C538.046814,194.627853 536.593445,197.218353 536.046814,201.007172 
	C534.288269,213.194489 532.486816,225.441666 526.108398,236.349670 
	C520.743103,245.525192 512.588928,249.503647 502.638306,247.873672 
	C493.855927,246.435043 489.125946,239.378738 491.182617,230.747253 
	C492.615509,224.733459 495.966095,219.802750 500.042236,215.305862 
	C505.205139,209.610138 510.750031,204.278885 517.075012,199.925049 
	C520.908569,197.286194 522.700684,194.132065 522.068848,189.021378 
	C516.349487,197.522018 508.845612,201.491272 499.205505,197.955673 
	C487.827271,193.782639 486.314728,183.771210 486.211670,173.360992 
	C477.621002,172.851059 477.441223,173.007233 473.851898,180.728424 
	C469.118347,190.910919 461.398895,197.572632 450.251801,199.612457 
	C442.655945,201.002426 436.216248,198.052078 430.581818,193.074615 
	C429.230652,191.881027 428.390625,190.104523 426.044006,189.295715 
	C418.591736,196.060684 410.502777,202.943024 399.271545,198.138794 
	C387.887848,193.269363 388.078796,182.374466 387.394379,172.007462 
	C380.483765,172.798141 375.001099,173.622177 371.925781,181.659210 
	C367.975220,191.983719 359.263245,198.325073 347.922150,199.666641 
	C340.998688,200.485626 334.797241,198.116486 329.711823,193.219147 
	C328.165985,191.730438 326.743134,190.114014 325.344757,188.641190 
	C322.958588,188.697449 322.133331,190.595596 320.836121,191.774811 
	C314.746063,197.310837 307.896027,200.626312 299.446869,198.953354 
	C291.574829,197.394684 287.948792,191.363647 289.151031,182.260422 
	C290.087250,175.171310 291.046906,168.083603 291.826599,160.976669 
	C292.032715,159.098145 292.655762,156.675613 290.419861,155.565155 
	C287.908905,154.318069 285.880554,155.956055 284.229218,157.624908 
	C276.474213,165.462204 272.291534,175.120239 270.194366,185.790146 
	C269.745026,188.076218 269.549194,190.415283 269.039581,192.685715 
	C267.987946,197.370926 263.345276,199.955750 257.688293,199.129745 
	C253.382385,198.501022 251.616974,195.669067 252.108719,190.200394 
	C252.372162,187.270660 253.211182,184.344330 252.330658,181.409454 
	C250.591934,180.928116 249.748413,182.195389 248.751846,182.961014 
	C239.782822,189.851517 228.992386,193.207901 218.921692,197.823959 
	C210.335724,201.759476 203.800232,199.657806 199.117935,193.372879 
	C197.782532,205.985123 196.506104,217.955322 195.254440,229.928131 
	C194.977814,232.574112 194.950577,235.255371 194.527878,237.875107 
	C193.450623,244.551544 190.950165,246.918488 184.216629,247.969086 
	C178.385132,248.878952 175.683670,246.255096 176.504852,240.372757 
	C178.712921,224.555771 181.073425,208.759155 183.157349,192.926010 
	C185.047440,178.565552 186.265335,164.133392 186.789841,149.653870 
	C187.021088,143.269730 192.830765,138.732422 198.972702,140.399200 
	C203.574493,141.648010 203.169922,145.717407 203.304291,149.910553 
	C205.780380,147.578766 207.591705,145.663864 209.614471,144.007187 
	C215.742203,138.988495 222.563034,137.018326 230.060928,140.505859 
	C237.464600,143.949539 240.500443,150.466858 241.190964,158.196518 
	C241.848251,165.554031 240.941223,172.742889 237.786804,179.707230 
	C244.006683,176.638855 249.483765,172.846649 253.111008,167.191330 
	C256.087006,162.551422 254.910919,156.828888 255.666870,151.613617 
	C258.104034,134.799973 260.341797,117.978081 267.852173,102.424530 
	C270.209412,97.542854 273.769836,94.052582 278.770660,91.967155 
	C286.500092,88.743851 292.456665,91.766533 294.211426,99.891609 
	C295.839722,107.430984 293.401123,114.421486 290.979279,121.317223 
	C287.079926,132.419876 280.823456,142.271667 274.019958,151.784180 
	C272.454987,153.972275 270.797699,156.061142 271.536682,159.626633 
	C273.656830,156.418945 275.472229,153.543930 277.416229,150.758667 
	C281.143494,145.418503 285.965149,141.338058 292.248016,139.478989 
	C301.652863,136.696121 308.870453,142.207245 309.323029,151.922592 
	C309.669617,159.363312 307.318359,166.406738 306.635559,173.683273 
	C306.371582,176.496750 305.919922,179.321838 305.989990,182.130753 
	C306.101562,186.601929 308.830994,188.251236 312.645508,185.803391 
	C317.592468,182.628769 321.836304,178.786484 322.060974,172.044601 
	C322.528656,158.008438 328.230194,146.967316 341.257019,140.547363 
	C343.527954,139.428192 346.242371,137.475815 348.427856,140.479996 
	C350.463165,143.277634 348.404205,145.358398 346.566132,147.435547 
	C338.413635,156.648361 337.493225,167.656174 339.877563,178.929214 
	C341.475464,186.483963 349.156128,189.003738 355.641876,184.752472 
	C359.825378,182.010300 362.370117,178.020905 363.422455,172.738098 
	C357.118530,169.832779 351.690125,166.194305 348.966949,159.533310 
	C346.047913,152.393127 348.387207,143.822647 354.388275,140.665222 
	C360.956940,137.209152 368.230804,139.568665 372.802673,146.581833 
	C376.195343,151.786057 376.457672,157.875137 377.548676,163.661957 
	C385.931305,164.256210 388.789948,162.019608 389.654083,154.273132 
	C390.206879,149.317322 390.686218,144.353302 391.186523,139.391754 
	C391.201263,139.245605 391.081116,139.085831 390.976746,138.806183 
	C389.259277,137.340393 387.025757,137.512253 384.906097,137.384598 
	C382.372467,137.232010 380.277374,136.504730 379.554871,133.790619 
	C378.829193,131.064636 379.946228,128.886337 381.904816,127.099663 
	C383.172150,125.943588 384.832977,125.131973 386.459473,125.274933 
	C392.713593,125.824631 395.142242,123.017487 395.027313,116.894836 
	C394.975677,114.141808 396.015991,111.333183 396.770782,108.607948 
	C398.081268,103.876427 403.340881,100.329109 408.226501,100.912506 
	C412.303131,101.399300 414.779572,103.715813 414.210754,107.962090 
	C413.705627,111.732834 412.653595,115.444771 411.651489,119.130608 
	C410.564392,123.129005 411.548553,125.295059 416.080627,124.993889 
	C417.905731,124.872604 419.746094,124.961700 421.579132,124.984406 
	C424.498932,125.020561 427.625885,125.067833 428.035706,128.886002 
	C428.448181,132.728851 426.938446,135.863342 423.023132,137.093811 
	C419.484558,138.205902 415.761444,137.941498 412.095520,137.823349 
	C410.130219,137.760010 408.627991,137.874207 408.135010,140.426331 
	C405.891541,152.040726 403.720459,163.655136 404.038788,175.556808 
	C404.236389,182.944839 406.232086,186.247528 410.366272,186.382080 
	C415.884155,186.561661 422.837311,180.009094 422.962524,174.328583 
	C423.118286,167.262527 424.056580,160.475601 427.497589,154.086014 
	C431.169373,147.267883 436.707458,142.823349 443.661469,139.888596 
	C445.507202,139.109650 447.520813,138.212585 449.166504,140.182007 
	C450.901184,142.257904 450.125183,144.450958 448.559906,146.061447 
	C441.538147,153.286148 439.559662,162.153488 439.812775,171.802719 
	C439.856262,173.461365 439.908875,175.144592 440.218323,176.766678 
	C441.078003,181.273315 443.112915,185.231537 447.834045,186.385803 
	C452.743439,187.586151 457.043579,185.780930 460.239563,181.792358 
	C461.273743,180.501678 462.078461,179.021317 462.936890,177.596802 
	C464.825134,174.463181 464.500519,172.329346 460.774292,170.562302 
	C453.443329,167.085846 449.185699,161.174698 448.907135,152.878876 
	C448.710815,147.032379 451.126801,142.496246 456.566437,139.964310 
	C461.531250,137.653381 466.737457,138.898132 471.171265,143.231049 
	C476.144470,148.091095 477.634216,154.322571 478.158722,160.941635 
	C478.235199,161.906647 478.432495,162.862106 478.648865,164.330704 
	C484.040955,163.559219 488.398560,162.763870 491.425659,157.222885 
	C497.514038,146.078384 506.745758,138.917419 520.166687,138.728699 
	C520.333252,138.726349 520.503845,138.711487 520.666016,138.739777 
	C526.335266,139.728745 531.619202,141.946472 537.757690,141.583939 
	C542.451843,141.306686 543.945007,145.120789 543.074585,150.886276 
	C541.931213,158.459930 540.747742,166.027557 539.615540,173.602844 
	C539.224121,176.221497 538.835327,178.855270 539.734070,182.387970 
	C548.754333,175.267395 556.526367,167.888184 560.364502,157.122635 
	C561.196838,154.787994 559.609802,153.371323 558.686462,151.666473 
	C554.734741,144.370453 557.466431,135.597534 564.415894,133.255615 
	C568.909363,131.741333 572.391663,133.255890 573.070496,137.835266 
	C573.618286,141.530701 575.477295,142.031326 578.477966,141.927216 
	C581.973755,141.805923 585.480042,141.796631 588.975952,141.913910 
	C594.185181,142.088669 596.804382,144.986069 595.649841,150.044006 
	C594.432800,155.375717 592.668091,160.609406 590.778870,165.752274 
	C589.250183,169.913742 589.081970,174.231216 588.583740,178.510971 
	C588.293335,181.005783 588.542297,183.716614 590.957642,185.203583 
	C593.580383,186.818253 596.201111,185.675247 598.443481,184.145859 
	C602.826965,181.156113 605.174194,176.875336 605.698730,171.598221 
	C606.918823,159.324661 612.910156,149.892319 623.171387,143.309937 
	C630.513245,138.600250 638.348145,136.323486 646.603210,141.366867 
	C647.975342,142.205139 649.136780,141.792114 650.386230,141.319809 
	C652.483093,140.527206 654.670837,140.610016 656.812927,140.853836 
	C661.344421,141.369598 663.132812,143.746796 662.480713,148.331635 
	C661.215820,157.225143 659.747986,166.092163 658.637573,175.004196 
	C658.135681,179.032913 656.932251,184.236069 661.348999,186.260300 
	C665.965332,188.375931 668.470459,183.499084 671.441772,180.688416 
	C680.728394,171.903915 678.618408,160.139221 679.770081,149.267380 
	C680.129639,145.873398 680.682312,143.209717 684.210938,141.700180 
	C692.271484,138.251831 696.019775,140.222778 697.210144,149.172241 
	C699.027222,147.489777 700.617310,145.841812 702.384460,144.412827 
	C708.768188,139.250504 715.816467,136.794418 723.711731,140.507126 
	C731.467773,144.154373 734.396729,151.024796 735.116211,159.143936 
	C735.763123,166.443954 733.625366,173.215256 730.481812,181.191376 
	C739.988831,174.526932 748.302917,169.595718 749.075806,157.134491 
	C750.135925,140.041794 753.495911,123.154022 759.733154,107.023384 
	C761.555969,102.309174 763.852478,97.851158 767.992126,94.738945 
	C772.591431,91.281166 777.818481,88.882744 783.266052,92.036240 
	C788.680603,95.170631 789.316895,100.998596 788.727234,106.613708 
	C787.555725,117.768867 782.878418,127.738968 777.288696,137.271805 
	C774.174194,142.583176 770.612793,147.631226 767.305603,152.831528 
	C766.267700,154.463623 764.756165,155.997253 765.638733,158.684769 
	C769.439331,153.831085 772.085449,148.399704 776.776184,144.621689 
	C781.429871,140.873581 786.220703,137.711548 792.659302,139.087952 
	C800.092102,140.676895 804.159851,147.532913 802.738464,156.019485 
	C801.446960,163.730209 800.093140,171.437134 799.113831,179.189590 
	C798.806213,181.625122 797.929749,185.006027 801.100647,186.290314 
	C804.202271,187.546509 806.495361,185.184326 808.346741,183.040787 
	C810.953735,180.022293 813.314331,176.788925 815.740723,173.617188 
	C816.990295,171.983780 818.202148,170.194000 820.615845,171.393799 
	C822.959229,172.558640 823.991821,174.424393 823.284241,177.155258 
	C820.874207,186.456299 807.855957,198.218994 798.314514,199.635895 
	C788.044189,201.161041 780.605469,193.199265 782.121765,182.313187 
	C783.062683,175.557968 784.085754,168.811981 784.869751,162.038437 
	C785.123779,159.844421 786.075684,156.937973 783.486755,155.682739 
	C780.586914,154.276794 778.239868,156.539536 776.619690,158.519577 
	C769.430847,167.305450 764.387451,177.156311 763.246216,188.632050 
	C762.482910,196.307251 759.252136,199.582733 752.378662,199.279587 
	C748.384338,199.103394 746.111877,197.084274 745.922546,193.138687 
	C745.732300,189.174942 745.880798,185.194931 745.880798,180.408585 
	C743.737305,181.987091 741.925720,183.575592 739.887024,184.779434 
	C729.983032,190.627670 719.412598,195.040939 708.579468,198.811188 
	C705.212952,199.982834 701.680603,199.842163 697.936951,198.379639 
M707.122986,186.028549 
	C716.138611,180.163345 717.476013,171.093658 717.113892,161.476120 
	C716.982361,157.983536 716.281860,154.285034 712.109192,153.117233 
	C707.852051,151.925781 704.454773,153.949814 702.054871,157.096985 
	C694.963501,166.396591 694.481018,177.540009 693.580200,188.857819 
	C697.680420,185.825485 702.261169,187.301163 707.122986,186.028549 
M206.176941,160.736557 
	C201.696854,169.623932 200.466782,179.163467 199.843338,190.134766 
	C203.154144,186.862518 206.232208,186.483292 209.447845,186.736481 
	C212.968369,187.013702 215.542969,185.310486 217.631149,182.761749 
	C223.030518,176.171539 224.573898,168.509384 223.468384,160.249878 
	C223.064102,157.229538 222.122803,154.243729 218.647522,153.328125 
	C215.323593,152.452408 212.345352,153.333954 209.981567,155.837753 
	C208.733917,157.159317 207.700439,158.683075 206.176941,160.736557 
M628.584229,157.115433 
	C623.237000,164.254852 620.463379,172.019943 623.328979,180.911011 
	C624.878113,185.717300 629.349609,187.236618 633.751587,184.747345 
	C635.993469,183.479553 637.531006,181.561340 638.767151,179.330215 
	C643.174011,171.376144 643.542175,162.483658 644.717834,153.787521 
	C645.127930,150.753693 643.247009,150.096390 640.672791,150.395355 
	C635.989319,150.939316 632.164673,153.070999 628.584229,157.115433 
M505.136139,164.742325 
	C503.220001,169.494186 502.544006,174.364975 503.965698,179.363632 
	C505.764709,185.688934 512.385559,187.527756 516.589905,182.444916 
	C524.148010,173.307480 524.932556,162.049988 526.204346,150.893936 
	C516.534790,149.822800 510.129303,154.068863 505.136139,164.742325 
M503.252777,227.940399 
	C502.916656,229.043823 502.416992,230.127167 502.278564,231.254852 
	C501.992767,233.582779 501.763947,236.138000 504.306244,237.382278 
	C506.804962,238.605194 509.183929,237.714508 511.149475,235.909103 
	C511.990631,235.136490 512.796021,234.226349 513.320374,233.223312 
	C516.951355,226.277924 518.640991,218.827209 519.320435,210.364273 
	C511.999390,214.745926 507.306000,220.547775 503.252777,227.940399 
M777.907349,113.378525 
	C778.318298,110.141678 780.432251,106.772667 776.632080,102.934174 
	C769.778076,113.421066 769.970581,125.175949 767.690308,136.248444 
	C772.260010,129.396820 775.842712,122.165215 777.907349,113.378525 
M276.109009,133.390091 
	C279.860870,126.126678 283.295654,118.730507 284.517975,110.555550 
	C284.860443,108.265060 285.831604,105.654022 282.428436,103.030899 
	C275.890411,113.548927 275.900177,125.235451 274.391602,136.548981 
	C274.863464,135.692230 275.335297,134.835495 276.109009,133.390091 
M364.900482,154.747284 
	C364.267822,152.984970 363.522858,151.151459 361.217896,151.551636 
	C359.387390,151.869461 359.068359,153.531250 359.365265,155.061020 
	C359.969360,158.173782 361.124969,160.922714 364.828430,161.451767 
	C366.134155,159.291855 365.601532,157.379639 364.900482,154.747284 
M465.376831,153.437439 
	C464.561279,152.099838 463.598145,150.908401 461.826172,151.681259 
	C460.616760,152.208755 460.249939,153.427109 460.505859,154.610596 
	C461.167969,157.672791 462.248901,160.481262 465.774963,161.548386 
	C467.437866,158.796387 465.770325,156.491440 465.376831,153.437439 
z"/>
</svg>