<?xml version="1.0" encoding="UTF-8"?>
<svg version="1.1" xmlns="http://www.w3.org/2000/svg" viewBox="0 0 150 120" width="150" height="120">
<path d="M0 0 C40.59 0 81.18 0 123 0 C123 31.02 123 62.04 123 94 C82.41 94 41.82 94 0 94 C0 62.98 0 31.96 0 0 Z " fill="#FDFDFD" transform="translate(0,0)"/>
<path d="M0 0 C1.64198364 -0.05716187 1.64198364 -0.05716187 3.31713867 -0.11547852 C11.13745305 -0.19716072 11.13745305 -0.19716072 15.1328125 2.66015625 C17.30899923 5.93385706 17.70857385 8.48325544 17.9375 12.375 C18.71351562 12.36339844 19.48953125 12.35179687 20.2890625 12.33984375 C45.15263889 12.13215278 45.15263889 12.13215278 51.9375 17.375 C56.93400933 24.86976399 53.72047712 38.62941449 53.1875 47.3125 C53.0946875 49.24319336 53.0946875 49.24319336 53 51.21289062 C52.92265625 52.45103516 52.8453125 53.68917969 52.765625 54.96484375 C52.7027832 56.07722412 52.63994141 57.18960449 52.57519531 58.33569336 C51.81398956 61.9636606 50.48236875 63.721348 47.9375 66.375 C45.39687781 67.64531109 43.60801088 67.50442986 40.765625 67.5078125 C39.71479736 67.50998779 38.66396973 67.51216309 37.58129883 67.5144043 C35.90136841 67.50727417 35.90136841 67.50727417 34.1875 67.5 C33.05401123 67.49589111 31.92052246 67.49178223 30.75268555 67.48754883 C4.87790817 67.31540817 4.87790817 67.31540817 -0.9375 61.5 C-2.28562842 58.9535352 -2.29931032 57.21672382 -2.0625 54.375 C-3.49722656 54.61283203 -3.49722656 54.61283203 -4.9609375 54.85546875 C-9.53410015 55.50335264 -14.07381892 55.63343342 -18.6875 55.6875 C-19.52023438 55.71650391 -20.35296875 55.74550781 -21.2109375 55.77539062 C-25.19340681 55.81661045 -27.52488832 55.67103552 -31.0703125 53.71875 C-33.46931038 50.89639955 -33.88884977 49.22339057 -34.3125 45.5625 C-34.51746094 43.83193359 -34.51746094 43.83193359 -34.7265625 42.06640625 C-34.83742188 40.84824219 -34.94828125 39.63007812 -35.0625 38.375 C-35.17335938 37.16714844 -35.28421875 35.95929687 -35.3984375 34.71484375 C-35.69253526 30.93529004 -35.89367152 27.16212974 -36.0625 23.375 C-36.10181641 22.70549316 -36.14113281 22.03598633 -36.18164062 21.34619141 C-36.90667301 8.47686654 -36.90667301 8.47686654 -33.8125 4.5 C-25.51288112 -1.91334186 -10.04838263 0.18601414 0 0 Z " fill="#FAFAFA" transform="translate(51.0625,16.625)"/>
<path d="M0 0 C1.05533936 -0.0213501 2.11067871 -0.0427002 3.19799805 -0.06469727 C4.19742432 -0.06912842 5.19685059 -0.07355957 6.2265625 -0.078125 C7.12197754 -0.0874707 8.01739258 -0.09681641 8.93994141 -0.10644531 C11.91017936 0.32833987 13.25187421 1.14550339 15.375 3.25 C16.125 6.9375 16.125 6.9375 16.375 10.25 C15.68792969 10.31058594 15.00085938 10.37117188 14.29296875 10.43359375 C13.39191406 10.51738281 12.49085937 10.60117187 11.5625 10.6875 C10.22251953 10.80931641 10.22251953 10.80931641 8.85546875 10.93359375 C6.24756441 11.18489767 6.24756441 11.18489767 3.375 12.25 C1.41373335 15.90714738 1.26339132 18.85056647 1.3125 22.9375 C0.87987962 29.51659488 -1.82650128 32.84558444 -6.203125 37.58203125 C-8.625 39.25 -8.625 39.25 -11.265625 39.171875 C-13.625 38.25 -13.625 38.25 -16.125 35.6875 C-18.34390284 33.05972225 -18.34390284 33.05972225 -21.046875 32.84765625 C-24.44261375 33.3775973 -25.28190659 34.58269512 -27.375 37.25 C-28.44706428 38.59241092 -29.52751158 39.92829351 -30.625 41.25 C-30.955 41.25 -31.285 41.25 -31.625 41.25 C-31.9634865 37.08373537 -32.29485752 32.91693347 -32.625 28.75 C-32.72039063 27.57695313 -32.81578125 26.40390625 -32.9140625 25.1953125 C-34.2462951 8.25692655 -34.2462951 8.25692655 -31.8125 4.3125 C-24.91632928 -2.18960382 -8.98768078 0.09764095 0 0 Z " fill="#FAFAFA" transform="translate(50.625,18.75)"/>
<path d="M0 0 C1.64198364 -0.05716187 1.64198364 -0.05716187 3.31713867 -0.11547852 C11.13745305 -0.19716072 11.13745305 -0.19716072 15.1328125 2.66015625 C17.30899923 5.93385706 17.70857385 8.48325544 17.9375 12.375 C18.71351562 12.36339844 19.48953125 12.35179687 20.2890625 12.33984375 C45.15263889 12.13215278 45.15263889 12.13215278 51.9375 17.375 C56.93400933 24.86976399 53.72047712 38.62941449 53.1875 47.3125 C53.0946875 49.24319336 53.0946875 49.24319336 53 51.21289062 C52.92265625 52.45103516 52.8453125 53.68917969 52.765625 54.96484375 C52.7027832 56.07722412 52.63994141 57.18960449 52.57519531 58.33569336 C51.81398956 61.9636606 50.48236875 63.721348 47.9375 66.375 C45.39687781 67.64531109 43.60801088 67.50442986 40.765625 67.5078125 C39.71479736 67.50998779 38.66396973 67.51216309 37.58129883 67.5144043 C35.90136841 67.50727417 35.90136841 67.50727417 34.1875 67.5 C33.05401123 67.49589111 31.92052246 67.49178223 30.75268555 67.48754883 C4.87790817 67.31540817 4.87790817 67.31540817 -0.9375 61.5 C-2.28562842 58.9535352 -2.29931032 57.21672382 -2.0625 54.375 C-3.49722656 54.61283203 -3.49722656 54.61283203 -4.9609375 54.85546875 C-9.53410015 55.50335264 -14.07381892 55.63343342 -18.6875 55.6875 C-19.52023438 55.71650391 -20.35296875 55.74550781 -21.2109375 55.77539062 C-25.19340681 55.81661045 -27.52488832 55.67103552 -31.0703125 53.71875 C-33.46931038 50.89639955 -33.88884977 49.22339057 -34.3125 45.5625 C-34.51746094 43.83193359 -34.51746094 43.83193359 -34.7265625 42.06640625 C-34.83742188 40.84824219 -34.94828125 39.63007812 -35.0625 38.375 C-35.17335938 37.16714844 -35.28421875 35.95929687 -35.3984375 34.71484375 C-35.69253526 30.93529004 -35.89367152 27.16212974 -36.0625 23.375 C-36.10181641 22.70549316 -36.14113281 22.03598633 -36.18164062 21.34619141 C-36.90667301 8.47686654 -36.90667301 8.47686654 -33.8125 4.5 C-25.51288112 -1.91334186 -10.04838263 0.18601414 0 0 Z M-15.47509766 2.43798828 C-24.30206703 2.59401768 -24.30206703 2.59401768 -32.0625 6.375 C-34.31472907 9.7533436 -34.26870737 10.65108807 -34.07421875 14.56640625 C-34.02716797 15.59443359 -33.98011719 16.62246094 -33.93164062 17.68164062 C-33.84172852 19.29329102 -33.84172852 19.29329102 -33.75 20.9375 C-33.70166016 21.98486328 -33.65332031 23.03222656 -33.60351562 24.11132812 C-33.28705254 30.55675975 -32.77550168 36.96156334 -32.0625 43.375 C-31.299375 42.611875 -30.53625 41.84875 -29.75 41.0625 C-28.863125 40.175625 -27.97625 39.28875 -27.0625 38.375 C-26.5675 37.776875 -26.0725 37.17875 -25.5625 36.5625 C-24.0625 35.375 -24.0625 35.375 -21.75 34.8125 C-18.17425459 35.56091183 -16.91728334 37.36659247 -14.6875 40.16015625 C-13.07701817 41.627718 -13.07701817 41.627718 -10.640625 41.296875 C-5.70371443 39.53155546 -2.72884996 35.77510333 -0.0625 31.375 C0.6140776 28.22692423 0.81319342 25.38711448 0.8046875 22.171875 C0.95549384 18.99607084 1.22865787 17.07591992 2.9375 14.375 C5.9765625 13.44921875 5.9765625 13.44921875 9.5625 13.0625 C10.75101563 12.92199219 11.93953125 12.78148437 13.1640625 12.63671875 C14.07929687 12.55035156 14.99453125 12.46398438 15.9375 12.375 C15.73701236 7.54037608 15.73701236 7.54037608 13.21240234 3.66503906 C10.50622586 2.13043544 8.88520302 2.01455969 5.7890625 2.046875 C4.78979736 2.05114502 3.79053223 2.05541504 2.76098633 2.05981445 C1.70548584 2.08132568 0.64998535 2.10283691 -0.4375 2.125 C-1.51427002 2.13813232 -2.59104004 2.15126465 -3.70043945 2.16479492 C-7.6263665 2.2252755 -11.55012691 2.33551485 -15.47509766 2.43798828 Z M3.57421875 16.3359375 C1.42178849 20.33257412 1.15341531 23.93197743 0.9375 28.375 C0.86321777 29.51517578 0.78893555 30.65535156 0.71240234 31.83007812 C0.51428876 35.0849801 0.35077397 38.33863147 0.21508789 41.59667969 C0.15469301 42.9564647 0.08558412 44.31588883 0.00805664 45.67480469 C-0.10466733 47.66236899 -0.18747731 49.65155846 -0.26953125 51.640625 C-0.3260083 52.81399414 -0.38248535 53.98736328 -0.44067383 55.19628906 C0.02219305 59.0868809 1.17250398 60.65191197 3.9375 63.375 C13.13805201 66.44185067 24.51405353 65.51554451 34.125 65.625 C35.63078613 65.65702515 35.63078613 65.65702515 37.16699219 65.68969727 C38.59060059 65.69634399 38.59060059 65.69634399 40.04296875 65.703125 C41.31370239 65.71714355 41.31370239 65.71714355 42.61010742 65.73144531 C45.46379049 65.29439745 46.8242007 64.3054347 48.9375 62.375 C52.61724629 53.96415134 51.61987485 42.42731685 51.9375 33.375 C51.99164063 32.13621094 52.04578125 30.89742187 52.1015625 29.62109375 C52.14410156 28.04521484 52.14410156 28.04521484 52.1875 26.4375 C52.22617188 25.09365234 52.22617188 25.09365234 52.265625 23.72265625 C51.85460038 20.78187292 50.98254398 19.50755713 48.9375 17.375 C45.92686007 15.56136639 43.57049988 15.09144978 40.078125 14.9609375 C39.13428955 14.92178223 38.1904541 14.88262695 37.21801758 14.84228516 C36.21794678 14.81183105 35.21787598 14.78137695 34.1875 14.75 C32.65162231 14.69851807 32.65162231 14.69851807 31.0847168 14.64599609 C29.01349239 14.58019148 26.94211205 14.51911583 24.87060547 14.46289062 C22.24601172 14.38424457 19.62643196 14.26889776 17.00390625 14.140625 C15.58600006 14.0918943 14.1680332 14.04488301 12.75 14 C11.51894531 13.95101563 10.28789063 13.90203125 9.01953125 13.8515625 C5.83387988 14.12799173 5.83387988 14.12799173 3.57421875 16.3359375 Z " fill="#333333" transform="translate(51.0625,16.625)"/>
<path d="M0 0 C6.36449775 0.36750381 10.22393137 2.61674165 15.375 6.25 C16.09816406 6.72824219 16.82132813 7.20648438 17.56640625 7.69921875 C22.66371528 11.228125 22.66371528 11.228125 24.1640625 14.671875 C24 17 24 17 22.71362305 18.51782227 C19.8522198 20.99275874 16.55293471 22.5002059 13.1875 24.1875 C12.48818359 24.55552734 11.78886719 24.92355469 11.06835938 25.30273438 C6.92432615 27.39219547 3.75303205 28.6607354 -1 28 C-3 26 -3 26 -3.16699219 23.70922852 C-3.12735352 22.77522217 -3.08771484 21.84121582 -3.046875 20.87890625 C-3.00433594 19.86119141 -2.96179688 18.84347656 -2.91796875 17.79492188 C-2.86253906 16.72822266 -2.80710937 15.66152344 -2.75 14.5625 C-2.71003906 13.49966797 -2.67007813 12.43683594 -2.62890625 11.34179688 C-2.2564679 3.38470185 -2.2564679 3.38470185 0 0 Z " fill="#F5F5F5" transform="translate(67,42)"/>
<path d="M0 0 C0.10477512 5.78591511 -0.00749455 11.29309366 -1 17 C-7.51214707 17.58819393 -14.02440383 18.08876458 -20.5625 18.25 C-21.51253906 18.27578125 -22.46257813 18.3015625 -23.44140625 18.328125 C-26.51621898 17.93379787 -27.82452345 17.19027571 -30 15 C-31.02734375 13.140625 -31.02734375 13.140625 -31 11 C-29.12890625 8.421875 -29.12890625 8.421875 -26.5625 5.75 C-25.71816406 4.85796875 -24.87382812 3.9659375 -24.00390625 3.046875 C-23.34261719 2.37140625 -22.68132813 1.6959375 -22 1 C-17.77467414 1.73201917 -15.78465072 3.82164419 -12.78125 6.72265625 C-10.82355237 8.38850293 -10.82355237 8.38850293 -7 8 C-6.7525 7.4225 -6.505 6.845 -6.25 6.25 C-2.77777778 0 -2.77777778 0 0 0 Z " fill="#F9F9F9" transform="translate(50,52)"/>
<path d="M0 0 C1.21236328 0.02707031 1.21236328 0.02707031 2.44921875 0.0546875 C3.37154297 0.08949219 3.37154297 0.08949219 4.3125 0.125 C4.3125 0.455 4.3125 0.785 4.3125 1.125 C3.69761719 1.22296875 3.08273438 1.3209375 2.44921875 1.421875 C-2.4473258 2.27781022 -2.4473258 2.27781022 -6.6875 4.6875 C-9.71372054 12.06391258 -9.0526146 21.54675461 -9.35498047 29.40161133 C-9.41036816 30.76811424 -9.47263551 32.13435427 -9.54150391 33.50024414 C-9.64185174 35.49554906 -9.71967416 37.49194675 -9.796875 39.48828125 C-9.84811523 40.66688721 -9.89935547 41.84549316 -9.95214844 43.05981445 C-9.65837857 46.46228745 -9.10387702 47.75600981 -6.6875 50.125 C2.54645824 53.20298608 13.92329229 52.24541449 23.5625 52.3125 C24.57473633 52.32547119 25.58697266 52.33844238 26.62988281 52.35180664 C27.58217773 52.35301514 28.53447266 52.35422363 29.515625 52.35546875 C30.36801758 52.35957764 31.22041016 52.36368652 32.09863281 52.36791992 C34.60098923 52.26535649 34.60098923 52.26535649 37.3125 50.125 C39.61148109 43.52511608 39.8123685 36.04787283 40.3125 29.125 C40.6425 29.125 40.9725 29.125 41.3125 29.125 C41.42917875 32.35386009 41.49990546 35.58217445 41.5625 38.8125 C41.61277344 40.18051758 41.61277344 40.18051758 41.6640625 41.57617188 C41.72757561 45.94269795 41.74972486 48.41225121 39.421875 52.20703125 C36.19909112 55.13737733 34.40785643 55.25273419 30.140625 55.2578125 C29.08979736 55.25998779 28.03896973 55.26216309 26.95629883 55.2644043 C25.83634521 55.25965088 24.7163916 55.25489746 23.5625 55.25 C22.42901123 55.24589111 21.29552246 55.24178223 20.12768555 55.23754883 C-3.13954252 55.08275577 -3.13954252 55.08275577 -9.6875 51.125 C-12.61060641 48.00865525 -13.05087349 45.92740921 -12.98046875 41.703125 C-12.97080078 40.67832031 -12.96113281 39.65351562 -12.95117188 38.59765625 C-12.92603516 37.53417969 -12.90089844 36.47070312 -12.875 35.375 C-12.86146484 34.29605469 -12.84792969 33.21710937 -12.83398438 32.10546875 C-12.79866584 29.4448058 -12.74934199 26.78515704 -12.6875 24.125 C-14.3375 25.775 -15.9875 27.425 -17.6875 29.125 C-18.3475 28.795 -19.0075 28.465 -19.6875 28.125 C-19.12160156 27.61453125 -18.55570313 27.1040625 -17.97265625 26.578125 C-13.53954046 22.18396454 -11.20562555 19.23560576 -10.875 12.875 C-10.88917969 11.90046875 -10.90335938 10.9259375 -10.91796875 9.921875 C-10.64046579 6.55421196 -9.68419669 4.82449669 -7.6875 2.125 C-4.48369983 -0.01086678 -3.66810033 -0.10632175 0 0 Z " fill="#232323" transform="translate(61.6875,28.875)"/>
<path d="M0 0 C4.06212212 -0.14547545 8.12357287 -0.23413226 12.1875 -0.3125 C13.91323242 -0.3753418 13.91323242 -0.3753418 15.67382812 -0.43945312 C24.19793085 -0.56299085 24.19793085 -0.56299085 28.25 2.28125 C30.35832514 5.55668371 30.77299628 8.14093682 31 12 C31.77601562 11.98839844 32.55203125 11.97679687 33.3515625 11.96484375 C58.21513889 11.75715278 58.21513889 11.75715278 65 17 C69.96398002 24.44597003 66.6681747 38.26600218 66 47 C65.67 47 65.34 47 65 47 C63.65648745 40.69903031 63.97598443 34.48023585 64.12695312 28.08007812 C64.14338867 26.78166992 64.14338867 26.78166992 64.16015625 25.45703125 C64.17699463 24.67303955 64.19383301 23.88904785 64.21118164 23.08129883 C64.13274194 20.69225065 64.13274194 20.69225065 62 18 C58.32838431 15.37948741 54.0828096 15.55673406 49.734375 15.3671875 C48.94097717 15.32562531 48.14757935 15.28406311 47.33013916 15.24124146 C44.80376739 15.11081376 42.2769914 14.99274684 39.75 14.875 C38.03381292 14.78857564 36.31766622 14.70134533 34.6015625 14.61328125 C30.40145246 14.39951002 26.20093713 14.19682004 22 14 C22 13.67 22 13.34 22 13 C23.98 12.67 25.96 12.34 28 12 C27.73606499 8.56769552 27.73606499 8.56769552 27 5 C23.72472818 2.81648545 22.29829226 2.65172535 18.45703125 2.3671875 C17.38388672 2.28339844 16.31074219 2.19960938 15.20507812 2.11328125 C14.08552734 2.03464844 12.96597656 1.95601562 11.8125 1.875 C10.11577148 1.74544922 10.11577148 1.74544922 8.38476562 1.61328125 C5.59033286 1.40104585 2.79554519 1.19694519 0 1 C0 0.67 0 0.34 0 0 Z " fill="#373737" transform="translate(38,17)"/>
<path d="M0 0 C6.36449775 0.36750381 10.22393137 2.61674165 15.375 6.25 C16.09816406 6.72824219 16.82132813 7.20648438 17.56640625 7.69921875 C22.66371528 11.228125 22.66371528 11.228125 24.1640625 14.671875 C24 17 24 17 22.71362305 18.51782227 C19.8522198 20.99275874 16.55293471 22.5002059 13.1875 24.1875 C12.48818359 24.55552734 11.78886719 24.92355469 11.06835938 25.30273438 C6.92432615 27.39219547 3.75303205 28.6607354 -1 28 C-3 26 -3 26 -3.16699219 23.70922852 C-3.12735352 22.77522217 -3.08771484 21.84121582 -3.046875 20.87890625 C-3.00433594 19.86119141 -2.96179688 18.84347656 -2.91796875 17.79492188 C-2.86253906 16.72822266 -2.80710937 15.66152344 -2.75 14.5625 C-2.71003906 13.49966797 -2.67007813 12.43683594 -2.62890625 11.34179688 C-2.2564679 3.38470185 -2.2564679 3.38470185 0 0 Z M1 2 C-0.65079442 3.65079442 -0.22549447 5.63736179 -0.31640625 7.91015625 C-0.35830078 8.89951172 -0.40019531 9.88886719 -0.44335938 10.90820312 C-0.48267578 11.94912109 -0.52199219 12.99003906 -0.5625 14.0625 C-0.60568359 15.10728516 -0.64886719 16.15207031 -0.69335938 17.22851562 C-0.79981225 19.81886884 -0.9018276 22.40932186 -1 25 C2.90367536 26.0831874 4.84549044 26.00920286 8.42578125 24.12890625 C9.22177734 23.71962891 10.01777344 23.31035156 10.83789062 22.88867188 C11.65451172 22.45103516 12.47113281 22.01339844 13.3125 21.5625 C14.14845703 21.12873047 14.98441406 20.69496094 15.84570312 20.24804688 C17.90402465 19.17771968 19.95466741 18.09488625 22 17 C21.61815859 14.54544595 21.29480551 13.28414304 19.48120117 11.53613281 C18.84158447 11.09624023 18.20196777 10.65634766 17.54296875 10.203125 C16.84236328 9.71972656 16.14175781 9.23632812 15.41992188 8.73828125 C14.31487305 8.00158203 14.31487305 8.00158203 13.1875 7.25 C12.46240234 6.74339844 11.73730469 6.23679687 10.99023438 5.71484375 C6.47684262 2.57419031 6.47684262 2.57419031 1 2 Z " fill="#1F1F1F" transform="translate(67,42)"/>
<path d="M0 0 C0.66 0 1.32 0 2 0 C1.8125 2.3125 1.8125 2.3125 1 5 C-1.1484375 6.4375 -1.1484375 6.4375 -4 8 C-5.02996094 8.60199219 -6.05992188 9.20398438 -7.12109375 9.82421875 C-8.76271484 10.74654297 -8.76271484 10.74654297 -10.4375 11.6875 C-11.52933594 12.31011719 -12.62117188 12.93273437 -13.74609375 13.57421875 C-17.18121455 15.07940373 -19.29756587 15.45281568 -23 15 C-25 13 -25 13 -25.1953125 11.0546875 C-25.13020833 9.03645833 -25.06510417 7.01822917 -25 5 C-24.34 5 -23.68 5 -23 5 C-22.67 7.31 -22.34 9.62 -22 12 C-17.01814075 11.45749692 -13.1154879 9.77285105 -8.75 7.4375 C-2.23825832 4 -2.23825832 4 0 4 C0 2.68 0 1.36 0 0 Z " fill="#252525" transform="translate(89,55)"/>
<path d="M0 0 C1.32278481 5.41139241 1.32278481 5.41139241 -0.0625 7.9375 C-2.91093248 9.49954362 -4.93504903 8.74921024 -8 8 C-9.32278481 2.58860759 -9.32278481 2.58860759 -7.9375 0.0625 C-5.08906752 -1.49954362 -3.06495097 -0.74921024 0 0 Z " fill="#141414" transform="translate(32,27)"/>
<path d="M0 0 C9.99057873 -0.78734859 9.99057873 -0.78734859 14.125 2.4375 C14.74375 3.283125 15.3625 4.12875 16 5 C16.33 5.33 16.66 5.66 17 6 C17.54327898 14.98008198 16.68486863 24.04778865 16 33 C15.67 33 15.34 33 15 33 C13.65648745 26.69903031 13.97598443 20.48023585 14.12695312 14.08007812 C14.13791016 13.21447266 14.14886719 12.34886719 14.16015625 11.45703125 C14.17699463 10.67303955 14.19383301 9.88904785 14.21118164 9.08129883 C14.13274194 6.69225065 14.13274194 6.69225065 12 4 C8.3662835 1.48435012 4.28707452 1.42870745 0 1 C0 0.67 0 0.34 0 0 Z " fill="#323232" transform="translate(88,31)"/>
<path d="M0 0 C0.33 0 0.66 0 1 0 C1.33 2.97 1.66 5.94 2 9 C2.44730469 8.4225 2.89460938 7.845 3.35546875 7.25 C3.96003906 6.5075 4.56460937 5.765 5.1875 5 C5.77917969 4.2575 6.37085938 3.515 6.98046875 2.75 C9 1 9 1 11.55078125 0.56640625 C14.42790432 1.0757534 15.16568828 1.72277704 17 3.9375 C19.50532494 6.69595362 21.15136797 7.77360988 25 8 C25 8.66 25 9.32 25 10 C23.25 10.71875 23.25 10.71875 21 11 C18.75438281 9.35087488 16.95279204 7.45205441 15 5.46875 C13.13831563 3.78615604 13.13831563 3.78615604 10.953125 4.05859375 C8.57368166 5.20548544 7.39546015 6.50567481 5.75 8.5625 C5.22921875 9.20316406 4.7084375 9.84382813 4.171875 10.50390625 C3.78515625 10.99761719 3.3984375 11.49132813 3 12 C2.01 11.67 1.02 11.34 0 11 C0 7.37 0 3.74 0 0 Z " fill="#262626" transform="translate(18,50)"/>
<path d="M0 0 C1.11503906 0.00322266 2.23007812 0.00644531 3.37890625 0.00976562 C4.53777344 0.01814453 5.69664063 0.02652344 6.890625 0.03515625 C8.06496094 0.03966797 9.23929688 0.04417969 10.44921875 0.04882812 C13.34640572 0.06060531 16.24348954 0.07705299 19.140625 0.09765625 C19.140625 0.42765625 19.140625 0.75765625 19.140625 1.09765625 C18.40948486 1.14253174 17.67834473 1.18740723 16.92504883 1.23364258 C13.60003865 1.44546195 10.2767461 1.67759433 6.953125 1.91015625 C5.80263672 1.98041016 4.65214844 2.05066406 3.46679688 2.12304688 C2.35498047 2.20361328 1.24316406 2.28417969 0.09765625 2.3671875 C-0.92352295 2.43526611 -1.94470215 2.50334473 -2.99682617 2.57348633 C-6.25381323 3.16988302 -8.2307702 4.09345763 -10.859375 6.09765625 C-12.22837854 9.67761884 -12.22837854 9.67761884 -12.859375 13.09765625 C-13.519375 12.76765625 -14.179375 12.43765625 -14.859375 12.09765625 C-15.42274587 8.26673435 -14.87065827 7.11395431 -12.609375 3.84765625 C-8.56503781 -0.19668094 -5.57435944 -0.02844061 0 0 Z " fill="#242424" transform="translate(29.859375,17.90234375)"/>
<path d="M0 0 C0.33 0 0.66 0 1 0 C1.11667875 3.22886009 1.18740546 6.45717445 1.25 9.6875 C1.30027344 11.05551758 1.30027344 11.05551758 1.3515625 12.45117188 C1.41507561 16.81769795 1.43722486 19.28725121 -0.890625 23.08203125 C-4.3728569 26.24828285 -6.49643046 26.1117401 -11.125 26.0625 C-12.22070312 26.05347656 -13.31640625 26.04445313 -14.4453125 26.03515625 C-15.70988281 26.01775391 -15.70988281 26.01775391 -17 26 C-17 25.67 -17 25.34 -17 25 C-16.40832031 24.96261719 -15.81664063 24.92523438 -15.20703125 24.88671875 C-8.49417337 24.46090099 -8.49417337 24.46090099 -3 21 C-0.69291598 14.35916699 -0.50305142 6.96329067 0 0 Z " fill="#171717" transform="translate(102,58)"/>
<path d="M0 0 C1.87075195 0.07831055 1.87075195 0.07831055 3.77929688 0.15820312 C6.83234731 0.28687575 9.8849846 0.42179139 12.9375 0.5625 C12.9375 0.8925 12.9375 1.2225 12.9375 1.5625 C0.88654395 3.19652794 -10.97508046 2.57733582 -23.0625 1.5625 C-23.0625 1.2325 -23.0625 0.9025 -23.0625 0.5625 C-15.30079679 -0.56784513 -7.82163255 -0.3617661 0 0 Z " fill="#2F2F2F" transform="translate(81.0625,81.4375)"/>
<path d="M0 0 C0.33 0 0.66 0 1 0 C1.02187378 0.83192871 1.02187378 0.83192871 1.04418945 1.68066406 C1.11886897 4.20446242 1.21546025 6.72696654 1.3125 9.25 C1.33505859 10.12269531 1.35761719 10.99539062 1.38085938 11.89453125 C1.52974777 15.4407822 1.67186572 18.28165197 3.15625 21.53125 C5.73763193 23.5876051 7.93670051 23.830542 11.1875 24.25 C12.81751953 24.47429687 12.81751953 24.47429687 14.48046875 24.703125 C15.31191406 24.80109375 16.14335938 24.8990625 17 25 C17 25.33 17 25.66 17 26 C6.33160718 26.76567413 6.33160718 26.76567413 3.125 24.921875 C1.8125 23.5625 1.8125 23.5625 0 21 C-0.33 20.67 -0.66 20.34 -1 20 C-1.01662231 18.5086609 -0.963192 17.01639195 -0.87890625 15.52734375 C-0.83056641 14.62822266 -0.78222656 13.72910156 -0.73242188 12.80273438 C-0.67634766 11.85720703 -0.62027344 10.91167969 -0.5625 9.9375 C-0.51029297 8.98810547 -0.45808594 8.03871094 -0.40429688 7.06054688 C-0.27418642 4.70673048 -0.13920888 2.35329301 0 0 Z " fill="#0D0D0D" transform="translate(50,56)"/>
<path d="M0 0 C0.99 0.495 0.99 0.495 2 1 C4.47060703 8.41182109 3.19696162 17.36936964 2 25 C1.67 25 1.34 25 1 25 C0.67 16.75 0.34 8.5 0 0 Z " fill="#363636" transform="translate(15,30)"/>
<path d="M0 0 C0.66 0 1.32 0 2 0 C2.33 2.31 2.66 4.62 3 7 C5.64 6.67 8.28 6.34 11 6 C11.33 6.66 11.66 7.32 12 8 C8.60535554 10.08901197 5.95158471 10.34361606 2 10 C0 8 0 8 -0.1953125 6.0546875 C-0.13020833 4.03645833 -0.06510417 2.01822917 0 0 Z " fill="#323232" transform="translate(64,60)"/>
<path d="M0 0 C1.65 0.33 3.3 0.66 5 1 C4.67 2.65 4.34 4.3 4 6 C2.35 5.67 0.7 5.34 -1 5 C-0.67 3.35 -0.34 1.7 0 0 Z " fill="#DEDEDE" transform="translate(26,28)"/>
<path d="M0 0 C0.33 0 0.66 0 1 0 C1.33 2.97 1.66 5.94 2 9 C3.65 7.02 5.3 5.04 7 3 C7.99 3.33 8.98 3.66 10 4 C7.69 6.64 5.38 9.28 3 12 C2.01 11.67 1.02 11.34 0 11 C0 7.37 0 3.74 0 0 Z " fill="#383838" transform="translate(18,50)"/>
<path d="M0 0 C9.73004484 -0.76681614 9.73004484 -0.76681614 12.84375 1.11328125 C14.1875 2.5 14.1875 2.5 16 5 C15.34 5.66 14.68 6.32 14 7 C13.34 6.01 12.68 5.02 12 4 C8.3662835 1.48435012 4.28707452 1.42870745 0 1 C0 0.67 0 0.34 0 0 Z " fill="#232323" transform="translate(88,31)"/>
<path d="M0 0 C0.804375 0.474375 1.60875 0.94875 2.4375 1.4375 C6.66939929 3.29359618 10.43172078 3.70559978 15 4 C15 4.33 15 4.66 15 5 C13.08458862 5.10841951 11.16740227 5.18578079 9.25 5.25 C7.64898437 5.31960937 7.64898437 5.31960937 6.015625 5.390625 C2.36197888 4.91735478 1.27771895 3.80844958 -1 1 C-0.67 0.67 -0.34 0.34 0 0 Z " fill="#141414" transform="translate(52,77)"/>
<path d="M0 0 C0.33 0 0.66 0 1 0 C1 4.62 1 9.24 1 14 C1.66 14 2.32 14 3 14 C2.67 15.32 2.34 16.64 2 18 C1.34 18 0.68 18 0 18 C0 12.06 0 6.12 0 0 Z " fill="#080808" transform="translate(17,47)"/>
<path d="M0 0 C1.65 1.65 3.3 3.3 5 5 C4.67 5.99 4.34 6.98 4 8 C2.35 6.68 0.7 5.36 -1 4 C-0.67 2.68 -0.34 1.36 0 0 Z " fill="#2C2C2C" transform="translate(19,64)"/>
<path d="M0 0 C2.31 0.33 4.62 0.66 7 1 C7 1.66 7 2.32 7 3 C5.1875 3.625 5.1875 3.625 3 4 C2.01 3.34 1.02 2.68 0 2 C0 1.34 0 0.68 0 0 Z " fill="#333333" transform="translate(36,57)"/>
</svg>
