<svg xmlns="http://www.w3.org/2000/svg" viewBox="0 0 103 29" width="103" height="29">
  <path fill="#000000" d="M9.9 6.2c-1.9 0-3.3 1-4.2 2.5V6.5H2.2v16h3.6v-8.7c0-2.4 1.2-4 3.1-4 1.8 0 2.8 1.3 2.8 3.4v9.3h3.6v-10c0-4-2.2-6.3-5.4-6.3zM24.9 6.2c-4.1 0-7.1 3.2-7.1 8s3 8 7.1 8c4.1 0 7.1-3.2 7.1-8s-3-8-7.1-8zm0 3.3c2 0 3.5 1.8 3.5 4.7s-1.5 4.7-3.5 4.7c-2 0-3.5-1.8-3.5-4.7s1.5-4.7 3.5-4.7zM39.3 6.5h-3.6v15.9H39V19c.8 1.7 2.3 3.2 4.8 3.2 3.6 0 6-3 6-7.9 0-4.8-2.3-8-6-8-2.5 0-4 1.4-4.7 3V6.5h.2zm4.2 3c2 0 3.4 1.8 3.4 4.8 0 3.1-1.4 4.8-3.4 4.8s-3.5-1.8-3.5-4.8c0-3.1 1.5-4.8 3.5-4.8zM56.4 0h-3.6v22.4h3.6V0zM65.5 6.2c-4 0-6.9 3.2-6.9 8s2.9 8 7 8c3.1 0 5.2-1.5 6.1-3.8l-3-1.2c-.5 1.3-1.6 2.1-3.2 2.1-2 0-3.3-1.4-3.5-3.6H72c.1-.4.1-.9.1-1.3 0-4.8-2.7-8.2-6.6-8.2zm0 3.1c1.8 0 3 1.3 3.3 3.4h-6.7c.3-2 1.6-3.4 3.4-3.4zM85.4 6.2c-2.1 0-3.7 1-4.6 2.7V6.5h-3.6v16h3.6v-8.7c0-2.4 1.3-4 3.2-4 1.9 0 3 1.3 3 3.4v9.3h3.6v-10c0-4-2.2-6.3-5.2-6.3zM95.5 6.5v3.1h3.3v10.1c0 2.4 1.2 3.4 3.3 3.4.7 0 1.6-.1 2.1-.3v-3c-.3.1-.8.1-1.1.1-.6 0-.9-.3-.9-1V9.6h2v-3.1h-2V3.3h-3.5v3.2h-3.2z"/>
</svg>
